<svg xmlns="http://www.w3.org/2000/svg" enable-background="new 0 0 64 64" viewBox="0 0 64 64" id="astronomy">
  <path d="M54.976 22.155c5.921-8.161 9.863-16.144 6.438-19.569-2.98-2.98-9.569-.824-19.585 6.408-.006.004-.01.01-.017.015C38.798 7.717 35.482 7 32 7c-3.556 0-6.977.737-10.186 2.174C20.025 8.418 18.061 8 16 8 7.729 8 1 14.729 1 23c0 4.981 2.45 9.39 6.198 12.12.293 2.366.905 4.617 1.792 6.715-7.229 10.012-9.384 16.6-6.404 19.579.879.879 2.057 1.273 3.463 1.272 4.064 0 10.02-3.299 16.076-7.69C25.156 56.286 28.492 57 32 57c13.785 0 25-11.215 25-25C57 28.506 56.277 25.178 54.976 22.155zM58.586 5.414c.871.871-.704 5.562-5.715 12.846-1.87-2.831-4.299-5.26-7.129-7.13C54.705 4.938 58.194 5.026 58.586 5.414zM5 23c0-.684.071-1.35.191-2H11c1.104 0 2-.896 2-2s-.896-2-2-2H6.792c1.966-3.006 5.356-5 9.208-5 6.065 0 11 4.935 11 11 0 .684-.071 1.35-.191 2H16c-1.104 0-2 .896-2 2s.896 2 2 2h9.208c-1.966 3.006-5.356 5-9.208 5C9.935 34 5 29.065 5 23zM16 38c8.271 0 15-6.729 15-15 0-4.42-1.933-8.387-4.984-11.134C27.943 11.293 29.944 11 32 11c7.868 0 14.731 4.356 18.327 10.778-3.331 4.405-7.731 9.526-13.377 15.173-5.658 5.658-10.788 10.064-15.197 13.396-4.904-2.723-8.588-7.349-10.051-12.981C13.065 37.774 14.506 38 16 38zM5.414 58.586c-.39-.39-.479-3.869 5.685-12.8 1.864 2.84 4.287 5.259 7.115 7.117C10.958 57.887 6.285 59.451 5.414 58.586zM32 53c-2.113 0-4.149-.313-6.073-.885 5.21-4.113 10.214-8.7 13.851-12.337 3.633-3.633 8.213-8.631 12.323-13.835C52.68 27.863 53 29.894 53 32 53 43.579 43.579 53 32 53zM59 54h-1v-1c0-1.104-.896-2-2-2s-2 .896-2 2v1h-1c-1.104 0-2 .896-2 2s.896 2 2 2h1v1c0 1.104.896 2 2 2s2-.896 2-2v-1h1c1.104 0 2-.896 2-2S60.104 54 59 54z"></path>
  <path d="M17 21h2c1.104 0 2-.896 2-2s-.896-2-2-2h-2c-1.104 0-2 .896-2 2S15.896 21 17 21zM16.02 5c1.105 0 2-.896 2-2s-.895-2-2-2h-.01c-1.104 0-1.995.896-1.995 2S14.915 5 16.02 5zM43.02 59h-.01c-1.104 0-1.995.896-1.995 2s.9 2 2.005 2c1.105 0 2-.896 2-2S44.125 59 43.02 59zM61.02 40h-.01c-1.104 0-1.995.896-1.995 2s.9 2 2.005 2c1.105 0 2-.896 2-2S62.125 40 61.02 40z"></path>
</svg>
