<svg xmlns="http://www.w3.org/2000/svg" viewBox="0 0 977.86 1018.31" id="music">
  <path d="M1683.21,993.74a451.94,451.94,0,0,0-134.53-160.33c-158.76-117.36-400-122.19-567.61-19.8a427.82,427.82,0,0,0-108.46,94.9c-91,111.8-125.45,261.54-106.53,403.15,8.7,65.08,27.95,128.7,55.29,188.47-1.34,2.87-2.63,5.72-3.8,8.53-26.59,63.37-30.07,141.4,17.4,196,23,26.45,57.18,42.82,92.54,39.73,8.35-.73,15.51-.4,15.52-9.29,0-9.07-11.34-10.07-21.73-10-5.72,0-11.14.34-14.22-.19a107.18,107.18,0,0,1-52.64-25.42C824.89,1673,815.22,1632,816.76,1593.6c.88-21.94,9-43.91,18.59-64.61,3.82,7.46,7.73,14.87,11.79,22.19a740.13,740.13,0,0,0,68.35,101.54q19.28,24.18,40.6,46.66c14.76,15.55,30.25,30.91,48.3,42.69,17.25,11.26,38.15,18.81,59,16.69a83.34,83.34,0,0,0,51.15-25c32.16-33.13,27.35-79.81,13.41-120.14-14.11-40.85-32.3-80.73-55.3-117.36a447.36,447.36,0,0,0-38.74-52.78c-13-15.18-27.15-29.92-44.87-39.61C927.78,1370.39,871.5,1417.47,838,1470a531.54,531.54,0,0,1-31.44-84.24,580.89,580.89,0,0,1-18.58-197.59,19.68,19.68,0,0,0,6.52,1.77q22.75,2.11,45.62,3.28c9.41.47,19,1,28.42.35,12.15-.9,20-4.37,23.44-17,23.73-87.65,71.82-176,146.73-229.89,166.15-119.54,422.5-80.31,527.3,98.8,18.94,32.37,38.74,80.23,46.16,117,4.55,22.59-5.63,45.67,23,47.94,19.26,1.54,32.75.14,52-.82,4.69-.23,9.37-.47,14.06-.76a16.35,16.35,0,0,0,6.37-1.68,544.23,544.23,0,0,1-.52,68.55c-4.67,65.16-21,129.43-46.3,190.14a206.23,206.23,0,0,0-40-44.76c-15.19-12.47-32.58-23.56-52.19-27.22-21.06-3.93-42.12,1-60.39,11.94-17.77,10.65-31.94,26-45.07,41.83a454.1,454.1,0,0,0-38.14,53.27A561.65,561.65,0,0,0,1370.68,1619c-13.09,40.11-15.38,87,18.39,117.84,14.41,13.15,32.74,21.47,52.34,22.25,21.16.84,41.89-7.92,58.88-19.93,34-24.05,62.27-57.94,87.84-90.49a742.13,742.13,0,0,0,79.61-125.38c19.6,51.53,19.48,124.14-15,168.23-18,23-44.16,36.79-73.61,34.22-8.36-.73-21.73,1.45-21.73,9.31,0,9,7.14,8.58,15.52,9.31,36.92,3.22,72.26-14.73,95.32-43,22.6-27.76,33.65-61.82,34.19-97.45.52-34.87-7.73-71.62-23.09-104.88a706.69,706.69,0,0,0,26.62-66.79C1754.3,1289.21,1751.76,1129.89,1683.21,993.74Zm-717.3,431.53c48.63,15.55,75.35,75.54,97.42,116.93a535.92,535.92,0,0,1,24.36,52.22c7.49,18.64,14.88,37.74,18.7,57.52,3.32,17.23,2.71,35.68-6.76,50.92a54.21,54.21,0,0,1-33.94,24.32c-35.08,7.63-66.21-27.18-87.66-49.75a690.86,690.86,0,0,1-70.28-87.08c-20.22-29.71-39.54-60.91-56.42-93.3C873.74,1457.3,916.15,1409.37,965.91,1425.27Zm735.3-247.52c-15,.93-30,1.59-44.94,1.9-7.37.16-14.69,0-22-.21-.58-3.13-1.25-6.23-1.71-9.16a378.51,378.51,0,0,0-43-125C1548.93,972.6,1483.43,917,1407,885c-75-31.38-159.28-38.9-238.81-22.39-83,17.22-159.36,62.28-214.29,126.84-31.85,37.44-56.29,80-74.28,125.65q-7.12,18.06-12.8,36.66-1.39,4.55-2.7,9.11c-.15.52-.38,1.16-.62,1.83-18.16.67-36.64-1.14-54.69-2.57-4.77-.38-9.54-.77-14.3-1.21a11.72,11.72,0,0,0-3.51.25c8-60.14,25.94-118.68,55-171.37,30.41-55.22,72.53-104.15,124.34-140.3,165.31-115.34,418.84-115.68,573.14,18.69a545.18,545.18,0,0,1,54.07,54.26c62.23,71.91,97.43,163.49,107.72,257.57A16,16,0,0,0,1701.21,1177.75ZM1520.5,1679.41c-21.9,22.87-53.47,57-88.93,47-13.88-3.93-25.48-13.86-32.45-26.36-9.08-16.28-7.94-36-3.91-53.61,8.67-37.8,25.91-75,44.44-108.93,18.28-33.44,40.35-67,68.46-93,11.77-10.92,27.13-26.81,43.65-27.31,16.9-.52,38.82,8.29,51.78,18.43,16.79,13.12,33.93,33.48,46.83,53.71A704.59,704.59,0,0,1,1520.5,1679.41Z" transform="translate(-761.07 -740.84)"></path>
  <path d="M1385.3,1179.16c6.93,18.87,10.07,38.94,8.62,55.08a16.82,16.82,0,0,1-.3,1.86c-.48,2.47-1.29,6.62,1.69,10.24a9.93,9.93,0,0,0,7.9,3.48c5,0,11.16-2.29,12-13.16l.08-1c3.63-40.47-7.57-77-31.53-102.8-8.52-9.19-18.52-16-28.19-22.67a211.41,211.41,0,0,1-18.8-13.92c-9.32-8-16.37-17.78-22.85-31.61-2.59-5.53-5.08-11.09-7.56-16.64-5.72-12.8-11.64-26-18.78-38.69a14.86,14.86,0,0,0-17.3-6.68,14.17,14.17,0,0,0-10.48,14.56c1.91,32.22,2,65.23,2.09,97.14l0,8.57c.18,52.71-.35,100.79-1.62,147-.25,9-.33,18.11-.43,27.36-.12,12.62-.25,25.6-.79,38.43a157.3,157.3,0,0,0-63.68,4.32c-18.58,5.2-35,13.63-47.59,24.39-14.68,12.58-28.68,35.3-19.81,57.94,6.46,16.51,22.6,28.41,45.44,33.5a109,109,0,0,0,23.7,2.63,102.17,102.17,0,0,0,25.24-3.12c15.6-4,35.22-11,48.59-30.65,11.51-16.86,12.88-36.34,14.21-55.17l.12-1.69c.84.36,1.67.74,2.48,1.12,7.66,3.63,17.82.86,20.91-5.68,1.69-3.57,2.09-10.75-7.1-15.1a137.38,137.38,0,0,0-14.49-5.86c.76-12.35,1.39-25.77,2-42.55,1.23-33.09.76-66.65.31-99.11-.26-18-.51-36-.48-54,0-22.37,0-46.77-.32-71.71,4.68,9.54,11,20.31,19.86,29.81,8.34,8.91,18.11,15.56,27.56,22a198.55,198.55,0,0,1,19.06,14.12C1370,1153.94,1381.3,1168.24,1385.3,1179.16Zm-134.52,219.4c-2.37,9-8.36,16.14-17.81,21.37-17.92,9.92-43.16,10.2-58.83,5.33a40.62,40.62,0,0,1-16.35-9.82c-3.3-3.31-5.26-7.27-5.39-10.85-.48-13.82,17.48-29.5,30.38-36.22,13.92-7.23,30.62-10.91,48.75-10.91a147.61,147.61,0,0,1,25.9,2.36A245,245,0,0,1,1250.78,1398.56Z" transform="translate(-761.07 -740.84)"></path>
</svg>
